<svg xmlns="http://www.w3.org/2000/svg" viewBox="0 0 108.51 138.31"><defs><style>.cls-1{fill:#f1f6f9;}.cls-2{fill:#74bddd;}.cls-3{fill:#071b23;}.cls-4{fill:#cfc7da;}.cls-5{fill:#eadc78;}.cls-6{fill:#c8d1d6;}.cls-7{fill:#8e8134;}</style></defs><title>hmc-logo</title><g id="Layer_5" data-name="Layer 5"><path class="cls-1" d="M255.94,107.59c-1.13-1-.58-2.32-2.46-5.25a29.44,29.44,0,0,0-2.21-2.89c-.48-.58-1.32-1.55-2.37-2.63-2.88-2.93-3.86-3-6.36-5.76a9.83,9.83,0,0,1-2.21-3.65c-.21-.67-.64-2-.08-2.46.09-.08.49-.39,2.2.26a9.56,9.56,0,0,1,4,2.46c1.49,1.54,1.12,2.11,2.54,4.07a15.47,15.47,0,0,0,4.67,4.15A19.82,19.82,0,0,0,259.07,98a31.56,31.56,0,0,0,4.33.85,16.35,16.35,0,0,0,4.91.17c2.12-.36,3.18-1.28,4.58-2,4.85-2.6,12.16-2.24,16,1.28.76.69.77,1.81,1.86,2.37,1.44.73,3.07.07,4.15-.28,2.68-.87,2.94-.13,8.8-.51a68.48,68.48,0,0,0,14.16-2.33c5.28-1.46,7.92-2.2,9.82-3.74,2.76-2.23,5-5.65,8.5-6.27.46-.08,1.74-.31,2,.2s-.75,1.64-1.11,2a12.36,12.36,0,0,1-3.78,2.53c-2.51,1.34-1.75,1.57-5.23,3.75a13.31,13.31,0,0,0-3.94,3,3.36,3.36,0,0,0-.91,2.43,2.26,2.26,0,0,0,.5,1.21,2.9,2.9,0,0,0,1.22.72c0,.73-48.06-1.61-61.72,3.84C262.43,107.57,258,109.43,255.94,107.59Z" transform="translate(-239.97 -45)"/><path class="cls-1" d="M340.66,85.48a4.15,4.15,0,0,1,2.23-2.73c.67-.31,2.09-.75,2.53-.2s-.44,2.31-1.62,3.24-2.68,1.33-3.14.81C340.44,86.35,340.55,85.94,340.66,85.48Z" transform="translate(-239.97 -45)"/></g><g id="Layer_3" data-name="Layer 3"><polygon class="cls-2" points="8.89 70.9 23.59 136.92 77.24 136.92 88.32 70.9 8.89 70.9"/><rect class="cls-3" x="8.89" y="67" width="79.43" height="3.9"/><path class="cls-4" d="M333.34,86.78a31.8,31.8,0,0,0-28.74-25h-32a32.52,32.52,0,0,0-19.65,8.75,32.14,32.14,0,0,0-9.09,16.27V108h6.41s-.09,3.47,0,4h76.7c.09-.54,0-4,0-4h6.41ZM329,103.4H248.15V86.52a28.79,28.79,0,0,1,24.5-20.86l15.93.08,15.93-.08A28.79,28.79,0,0,1,329,86.52Z" transform="translate(-239.97 -45)"/></g><g id="Layer_4" data-name="Layer 4"><path class="cls-5" d="M346,161.32c-.74-.77-.89-.49-4.9-3.56a46.38,46.38,0,0,1-5.4-4.82c-1.25-1.27-2.25-2.4-3-3.26s-1.66-2-2.68-3.49a47.86,47.86,0,0,1-3.81-6.16c-2.31-4.49-2-4.59-2.65-5.45-1.53-2.1-4.87-3.69-8.61-4l-1-.07h0a14.16,14.16,0,0,0-6.79,1.47l-.2.1a11,11,0,0,0-1.05.61l-.2.12a13.11,13.11,0,0,0-1.06.78l-.05.06-.07,0c-.34.29-.65.6-1,.91l-.15.17c-.28.3-.54.61-.79.93l-.13.18a14.08,14.08,0,0,0-2.62,6.43h0c-.05.33-.09.67-.12,1-.33,3.74.65,7.3,2.44,9.18.75.78.89.5,4.91,3.56a48,48,0,0,1,5.39,4.82c1.26,1.27,2.25,2.4,3,3.26s1.66,2.05,2.69,3.5a47.07,47.07,0,0,1,3.8,6.15c2.31,4.49,2,4.59,2.65,5.45,1.54,2.1,4.87,3.69,8.61,4,.34,0,.68.06,1,.07h0a14.24,14.24,0,0,0,6.79-1.46l.2-.1c.36-.19.71-.4,1-.62l.2-.12a13.11,13.11,0,0,0,1.06-.78l.06-.06.06,0c.34-.29.66-.6,1-.91l.15-.17c.28-.3.54-.61.79-.93l.13-.18a14.1,14.1,0,0,0,2.63-6.43h0c.05-.33.08-.67.11-1C348.76,166.77,347.77,163.2,346,161.32Z" transform="translate(-239.97 -45)"/><circle class="cls-1" cx="61.42" cy="45.88" r="4.06"/><path class="cls-6" d="M297.47,89.82c0,2.24,6.17,5.12,3.93,5.12a4.07,4.07,0,0,1-4.07-4.06" transform="translate(-239.97 -45)"/><circle class="cls-1" cx="33.99" cy="33.08" r="7.5"/><path class="cls-6" d="M266.47,78.08c0,4.14,11.64,7.5,7.5,7.5a7.5,7.5,0,0,1-7.5-7.5" transform="translate(-239.97 -45)"/><path class="cls-7" d="M313.59,77" transform="translate(-239.97 -45)"/><path class="cls-7" d="M308.87,71.62" transform="translate(-239.97 -45)"/><circle class="cls-1" cx="57.85" cy="4.06" r="4.06"/><path class="cls-6" d="M293.9,48c0,2.25,6.17,5.13,3.92,5.13a4.07,4.07,0,0,1-4.06-4.07" transform="translate(-239.97 -45)"/></g></svg>